<mxfile host="app.diagrams.net" modified="2020-11-14T16:01:27.114Z" agent="5.0 (Windows NT 10.0; Win64; x64) AppleWebKit/537.36 (KHTML, like Gecko) Chrome/86.0.4240.198 Safari/537.36" etag="EKJJfM_sxVRgZiUaq7mS" version="13.9.8" type="github">
  <diagram id="wnRm1N_ub3fHJhO1jdyC" name="Page-1">
    <mxGraphModel dx="395" dy="212" grid="1" gridSize="10" guides="1" tooltips="1" connect="1" arrows="1" fold="1" page="1" pageScale="1" pageWidth="850" pageHeight="1100" math="0" shadow="0">
      <root>
        <mxCell id="0" />
        <mxCell id="1" parent="0" />
        <mxCell id="wwPOlOmusM_WS0g6rzj6-2" value="" style="ellipse;whiteSpace=wrap;html=1;aspect=fixed;fillColor=#f5f5f5;fontColor=#333333;" vertex="1" parent="1">
          <mxGeometry x="560" y="320" width="10" height="10" as="geometry" />
        </mxCell>
        <mxCell id="wwPOlOmusM_WS0g6rzj6-4" value="" style="ellipse;whiteSpace=wrap;html=1;aspect=fixed;fontColor=#333333;fillColor=#000000;" vertex="1" parent="1">
          <mxGeometry x="530" y="288" width="10" height="10" as="geometry" />
        </mxCell>
        <mxCell id="wwPOlOmusM_WS0g6rzj6-5" value="" style="ellipse;whiteSpace=wrap;html=1;aspect=fixed;fontColor=#333333;fillColor=#000000;" vertex="1" parent="1">
          <mxGeometry x="530" y="350" width="10" height="10" as="geometry" />
        </mxCell>
        <mxCell id="wwPOlOmusM_WS0g6rzj6-6" value="" style="ellipse;whiteSpace=wrap;html=1;aspect=fixed;fontColor=#333333;fillColor=#000000;" vertex="1" parent="1">
          <mxGeometry x="590" y="288" width="10" height="10" as="geometry" />
        </mxCell>
        <mxCell id="wwPOlOmusM_WS0g6rzj6-7" value="" style="ellipse;whiteSpace=wrap;html=1;aspect=fixed;fontColor=#333333;fillColor=#000000;" vertex="1" parent="1">
          <mxGeometry x="590" y="350" width="10" height="10" as="geometry" />
        </mxCell>
        <mxCell id="wwPOlOmusM_WS0g6rzj6-8" value="" style="endArrow=none;html=1;exitX=0;exitY=0;exitDx=0;exitDy=0;entryX=1;entryY=1;entryDx=0;entryDy=0;" edge="1" parent="1" source="wwPOlOmusM_WS0g6rzj6-2" target="wwPOlOmusM_WS0g6rzj6-4">
          <mxGeometry width="50" height="50" relative="1" as="geometry">
            <mxPoint x="415" y="330" as="sourcePoint" />
            <mxPoint x="415" y="298" as="targetPoint" />
          </mxGeometry>
        </mxCell>
        <mxCell id="wwPOlOmusM_WS0g6rzj6-9" value="" style="endArrow=none;html=1;exitX=0;exitY=1;exitDx=0;exitDy=0;entryX=1;entryY=0;entryDx=0;entryDy=0;" edge="1" parent="1" source="wwPOlOmusM_WS0g6rzj6-2" target="wwPOlOmusM_WS0g6rzj6-5">
          <mxGeometry width="50" height="50" relative="1" as="geometry">
            <mxPoint x="521.4644660940672" y="328.53553390593265" as="sourcePoint" />
            <mxPoint x="508.53553390593265" y="308.5355339059327" as="targetPoint" />
          </mxGeometry>
        </mxCell>
        <mxCell id="wwPOlOmusM_WS0g6rzj6-10" value="" style="endArrow=none;html=1;exitX=1;exitY=1;exitDx=0;exitDy=0;entryX=0;entryY=0;entryDx=0;entryDy=0;" edge="1" parent="1" source="wwPOlOmusM_WS0g6rzj6-2" target="wwPOlOmusM_WS0g6rzj6-7">
          <mxGeometry width="50" height="50" relative="1" as="geometry">
            <mxPoint x="531.4644660940672" y="338.5355339059327" as="sourcePoint" />
            <mxPoint x="508.53553390593265" y="361.46446609406735" as="targetPoint" />
          </mxGeometry>
        </mxCell>
        <mxCell id="wwPOlOmusM_WS0g6rzj6-11" value="" style="endArrow=none;html=1;exitX=0;exitY=1;exitDx=0;exitDy=0;entryX=1;entryY=0;entryDx=0;entryDy=0;" edge="1" parent="1" source="wwPOlOmusM_WS0g6rzj6-6" target="wwPOlOmusM_WS0g6rzj6-2">
          <mxGeometry width="50" height="50" relative="1" as="geometry">
            <mxPoint x="578.5355339059153" y="338.53553390591526" as="sourcePoint" />
            <mxPoint x="601.4644660940672" y="361.46446609406735" as="targetPoint" />
          </mxGeometry>
        </mxCell>
      </root>
    </mxGraphModel>
  </diagram>
</mxfile>
